<?xml version="1.0" encoding="UTF-8"?>
<svg width="108.53" height="47.6" version="1.1" viewBox="0 0 108.52777 47.599716" xmlns="http://www.w3.org/2000/svg">
<g transform="translate(129.35 -37.358)">
<path d="m-106.92 84.584c-3.9413-1.5064-5.8178-6.1665-3.9734-9.8675 1.1556-2.319 3.7779-4.0213 6.1944-4.0213 2.3993 0 4.9024 1.6116 6.2224 4.0061 1.8695 3.3914 0.35701 7.7226-3.3697 9.6498-1.1653 0.6026-3.791 0.72316-5.0736 0.23296zm3.3756-3.6703c1.2929-0.5402 2.0203-1.608 2.0203-2.9657 0-2.2588-1.0367-3.2841-3.3206-3.2841-1.0463 0-1.3647 0.13449-2.1298 0.89958-0.82064 0.82064-0.89958 1.0372-0.89958 2.4674 0 1.2839 0.10783 1.6691 0.59545 2.1272 1.1632 1.0928 2.3516 1.3332 3.7342 0.75553zm51.231 3.8218c-4.0805-1.2412-6.3289-6.1533-4.5237-9.8825 1.1079-2.2886 3.975-4.1577 6.3775-4.1577 2.4176 0 5.274 1.8718 6.3511 4.1618 1.2745 2.7098 0.50491 6.2591-1.7964 8.2848-1.7417 1.5331-4.4189 2.1989-6.4085 1.5937zm3.1018-3.8988c2.0068-0.9523 2.5743-3.5649 1.1314-5.2084-1.3748-1.5659-3.4654-1.477-5.0252 0.2135-0.51566 0.55886-0.66146 0.99908-0.66146 1.9972 0 1.4336 0.68894 2.4315 2.1167 3.0661 1.0452 0.46455 1.3326 0.4565 2.4386-0.06835zm-78.443-0.53683c-0.32903-0.06448-0.80476-0.49573-1.0572-0.95834-0.40276-0.73816-0.46988-1.8848-0.54836-9.3685l-0.0894-8.5274 0.92075-1.1299 0.92076-1.1299 0.4413-9.1281c0.46907-9.7027 0.6307-11.185 1.2919-11.846 0.22937-0.22937 1.0469-0.50668 1.8167-0.61624 0.76983-0.10956 22.666-0.20789 48.658-0.21851l47.259-0.01931 1.8564 0.92872c2.0938 1.0475 3.6647 2.5903 4.6826 4.5992l0.6802 1.3423-0.0683 15.011-0.0683 15.011-3.7042 1.1491c-12.754 3.9566-16.428 5.0177-16.646 4.808-0.13303-0.12786-0.26402-1.1595-0.29109-2.2925-0.11473-4.8018-3.0607-8.3214-7.5808-9.0571-2.7631-0.4497-5.0775 0.33936-7.3483 2.5053-2.1416 2.0428-2.7623 3.5181-2.7804 6.6084l-0.01389 2.3812h-36.694l-0.0458-2.6458c-0.038-2.1965-0.14936-2.8413-0.6556-3.7966-0.92596-1.7474-2.5802-3.387-4.2389-4.2016-1.2756-0.62641-1.8197-0.73302-3.7416-0.73302-1.9236 0-2.4656 0.10639-3.7464 0.73537-0.8236 0.40445-1.9961 1.2193-2.6055 1.8107-1.623 1.575-2.1823 3.0403-2.3612 6.1852l-0.15045 2.6458-6.7469 0.0323c-3.7108 0.01775-7.0161-0.02045-7.3451-0.08493zm11.53-5.4747c0.40583-0.40603 0.4449-1.7008 0.4449-14.744 0-16.69 0.3653-15.05-3.3518-15.05-2.1676 0-2.3529 0.04327-2.7445 0.64083-0.37304 0.56933-0.40988 2.2004-0.33021 14.618 0.0493 7.6876 0.18606 14.179 0.30387 14.425 0.28141 0.58801 0.95682 0.71681 3.2964 0.62862 1.3879-0.05231 2.0624-0.19906 2.3812-0.5181zm24.05-17.698c0.56052-0.55973 0.81683-4.1289 0.60441-8.4162-0.19535-3.9425 0.49635-3.68-9.6986-3.68h-8.3171l-0.62596 0.62596c-0.44358 0.44358-0.68188 1.0735-0.8179 2.1622-0.21735 1.7396-0.01 7.9355 0.29104 8.6845 0.4469 1.113 1.3819 1.2215 9.9652 1.1566 7.3931-0.05595 8.1695-0.10406 8.599-0.53296zm22.343-0.1769c0.49076-0.60638 0.5192-0.98674 0.43936-5.8743-0.06274-3.8407-0.17654-5.317-0.42933-5.5693-0.268-0.26758-2.2671-0.34342-9.0525-0.34342-8.0074 0-8.7466 0.03804-9.181 0.47247-0.42216 0.42216-0.47247 1.0375-0.47247 5.7781 0 5.2868 2e-3 5.3074 0.63744 5.8218 0.60704 0.49155 1.0404 0.51252 9.0856 0.43964l8.4482-0.07653zm21.808-0.09399c0.62438-0.72625 0.63823-0.8476 0.63823-5.5931 0-4.3806-0.04899-4.9113-0.50548-5.4754l-0.50548-0.62462-7.9432-0.0772c-9.141-0.08884-9.599-0.01214-10.068 1.686-0.3234 1.1713-0.11052 8.2825 0.28704 9.5882 0.14707 0.48304 0.52333 0.98407 0.83613 1.1134 0.3128 0.12933 4.1808 0.21037 8.5956 0.18008l8.0269-0.05507zm22.315 0.36455c0.6929-0.69291 0.90673-2.413 0.75572-6.0796-0.12761-3.0986-0.33687-3.8787-1.3343-4.9745-0.86997-0.95573-2.7039-1.151-10.09-1.0746l-6.8508 0.07096-0.55754 0.74596c-0.49871 0.66726-0.56661 1.1682-0.64354 4.7475-0.09745 4.5344 0.0091 5.414 0.77361 6.386l0.54142 0.6883h8.4475c7.9894 0 8.4751-0.02766 8.9576-0.5101z" fill="#c51230" stroke-width=".26458"/>
</g>
</svg>
