<?xml version="1.0" encoding="UTF-8"?>
<svg width="41.343" height="15.39" version="1.1" viewBox="0 0 41.342583 15.389845" xmlns="http://www.w3.org/2000/svg">
<g transform="translate(-23.457 -13.064)">
<path d="m31.524 28.421c-0.55707-0.10176-1.0578-0.36696-1.4687-0.77783-0.33123-0.33123-0.54051-0.67244-0.6931-1.13-0.08669-0.25998-0.09989-0.36675-0.09981-0.80759 7.8e-5 -0.44558 0.01287-0.54641 0.10409-0.82062 0.14747-0.4433 0.35407-0.77515 0.69315-1.1134 0.33202-0.33121 0.60911-0.50917 1.0098-0.6485 1.0299-0.35816 2.1192-0.10499 2.8774 0.66877 0.43672 0.44568 0.66638 0.90914 0.76478 1.5434 0.08666 0.55854-0.0487 1.251-0.34352 1.7573-0.18947 0.32541-0.6631 0.79895-0.98816 0.98798-0.51779 0.3011-1.293 0.44335-1.8559 0.34054zm1.0551-1.2902c0.1753-0.06695 0.29945-0.15453 0.49204-0.34712 0.34208-0.34208 0.44261-0.58626 0.4439-1.0782 8.29e-4 -0.31434-0.01216-0.37942-0.12224-0.61271-0.16856-0.35721-0.39392-0.59013-0.7313-0.75584-0.62408-0.30653-1.2563-0.195-1.7661 0.31156-0.3269 0.32483-0.42433 0.57286-0.42287 1.0765 9.14e-4 0.31633 0.01623 0.40429 0.10355 0.59474 0.11178 0.24381 0.39292 0.56912 0.60527 0.70035 0.39154 0.24198 0.9402 0.28543 1.3978 0.11068zm-0.82499-0.97514c-0.04539-0.01834-0.12012-0.08114-0.16608-0.13956-0.10406-0.1323-0.11417-0.44247-0.01913-0.58751 0.19009-0.29011 0.69869-0.27722 0.85323 0.02163 0.1257 0.24308 0.04191 0.57286-0.1739 0.68446-0.12418 0.06422-0.3621 0.07432-0.49411 0.02098zm27.847 2.2466c-1.0141-0.22804-1.7492-0.89188-2.0775-1.8762-0.07824-0.23455-0.09125-0.35152-0.09125-0.82062 0-0.46814 0.01311-0.58654 0.09088-0.82062 0.30364-0.91396 1.034-1.6009 1.9607-1.8443 0.38599-0.10137 1.0342-0.09075 1.4068 0.02304 0.92182 0.28159 1.5715 0.90594 1.8757 1.8026 0.11887 0.35041 0.15039 1.0844 0.0626 1.4575-0.22947 0.97506-1.0044 1.7819-1.9578 2.0384-0.33661 0.09054-0.95873 0.11027-1.27 0.04028zm1.1915-1.3036c0.3144-0.14713 0.59344-0.42022 0.74521-0.72934 0.10597-0.21583 0.11487-0.26728 0.11487-0.66381 0-0.39327-0.01-0.44912-0.11118-0.65639-0.1326-0.27019-0.40671-0.55476-0.67265-0.69828-0.75417-0.40702-1.7119-0.09239-2.1079 0.69248-0.10907 0.21617-0.11723 0.26227-0.11723 0.66219 0 0.39284 0.0095 0.44925 0.11068 0.65523 0.1982 0.40363 0.6093 0.74152 1.0322 0.84837 0.27661 0.06989 0.72606 0.02054 1.006-0.11046zm-0.93297-0.98629c-0.39865-0.31358-0.20517-0.89532 0.29777-0.89532 0.16787 0 0.21161 0.01759 0.32458 0.13056 0.23166 0.23167 0.23 0.52053-4e-3 0.72615-0.11247 0.09875-0.17063 0.12022-0.32567 0.12022-0.13225 0-0.21982-0.02443-0.2925-0.0816zm-34.412 0.32764c-0.16601-0.06041-0.343-0.29621-0.45004-0.59959l-0.05267-0.14928 0.37815-0.18396c0.4546-0.22115 0.86615-0.59715 0.94626-0.86451 0.09729-0.32472-0.03668-0.58425-0.40347-0.78161-0.20193-0.10865-0.20661-0.1092-0.6892-0.08078-0.26724 0.01574-0.49276 0.02175-0.50116 0.01336-0.0084-0.0084-0.0171-0.25866-0.01936-0.55616-0.0023-0.29749-5e-3 -0.60244-0.0061-0.67766-0.03912-2.6659 0.46975-5.3686 1.3357-7.0941 0.19655-0.39166 0.56331-0.96124 0.79819-1.2396 0.19503-0.23113 0.13981-0.24185-0.65341-0.12686-1.2915 0.18723-1.958 0.38248-2.104 0.61637-0.03 0.04808-0.0652 0.19777-0.07823 0.33263-0.03413 0.35328-0.16774 0.5792-0.32467 0.54898-0.12948-0.02494-0.16784-0.18524-0.16664-0.6965 0.0016-0.70632 0.05832-0.8343 0.46559-1.0514 0.56647-0.30193 1.7884-0.58583 2.9514-0.68574 0.12895-0.01108 0.42789-0.03832 0.66431-0.06054 0.28895-0.02716 6.273-0.03985 18.257-0.03871 15.782 0.0015 17.846 0.0084 17.994 0.06059 0.4104 0.1448 0.70728 0.41056 0.88714 0.79415l0.10298 0.21961 0.0105 3.8168 0.0105 3.8168-0.22303 0.04991c-0.27354 0.06121-0.54891 0.24248-0.64464 0.42434-0.0395 0.07505-0.0717 0.21714-0.0717 0.31661 0 0.34483 0.25475 0.57004 0.69882 0.61779l0.21948 0.0236 0.0105 0.91527c6e-3 0.50694-7e-3 1.0116-0.0294 1.1311-0.10903 0.58979-0.66766 1.1086-1.2332 1.1454l-0.19334 0.01256 0.0193-0.13677c0.0106-0.07522 0.0185-0.35658 0.0176-0.62523-2e-3 -0.56327-0.0824-0.91403-0.31536-1.3766-0.1811-0.35963-0.37356-0.61637-0.68524-0.9141-0.61897-0.59129-1.3542-0.88379-2.2215-0.88379-0.87434 0-1.6103 0.2968-2.2416 0.90407-0.32287 0.31054-0.53025 0.60629-0.73325 1.0457l-0.15174 0.32844-1.6898-0.02044c-0.92942-0.01124-1.8745-0.02282-2.1002-0.02572-0.34582-0.0045-2.3412 0.0074-2.7158 0.01615-0.14874 0.0035-12.444-0.0012-12.68-0.0048-0.09672-0.0015-0.21541-0.0038-0.26377-0.0052-0.04836-0.0014-0.14507-0.0021-0.21492-0.0016-0.06985 5.01e-4 -0.22372-7.66e-4 -0.34192-0.0028-0.11821-0.0021-0.30285-5.51e-4 -0.41031 0.0033-0.10746 0.0039-0.48498 0.0098-0.83893 0.01313l-0.64354 0.0061-0.19661-0.39291c-0.35862-0.71668-0.8154-1.1845-1.4861-1.5221-0.5019-0.25263-0.8692-0.33844-1.4458-0.33778-0.57395 6.52e-4 -0.94216 0.08614-1.4458 0.33568-0.82918 0.41081-1.4119 1.1168-1.6807 2.0363-0.11059 0.37831-0.14531 0.95515-0.08397 1.3951l0.03133 0.22469-1.6538-0.0031c-0.9096-0.0017-1.6802-0.01269-1.7124-0.02442zm0.77364-3.9447c0.37008-0.07351 1.1178-0.32232 1.7027-0.56661 1.7983-0.75102 3.7939-2.0207 4.4603-2.8377 0.15432-0.18921 0.51709-0.83316 1.2929-2.295 1.4357-2.7053 1.4766-2.7874 1.4197-2.8559-0.0711-0.08567-5.9219-0.08071-6.2869 0.0053-0.9308 0.21939-1.7111 0.96504-2.3237 2.2205-0.6863 1.4065-1.0944 3.1597-1.1426 4.909-0.02487 0.90212 0.0295 1.2845 0.20436 1.4372 0.11048 0.0965 0.10178 0.09672 0.67323-0.01679zm12.696-3.6967c0.14423-0.07886 0.27828-0.26466 0.52858-0.73264 1.0833-2.0253 1.4752-2.7832 1.4556-2.8149-0.01463-0.02367-1.0752-0.03771-2.848-0.03771-2.642 0-2.8285 0.0044-2.8828 0.06838-0.03192 0.03761-0.23082 0.3937-0.44199 0.79131-0.21117 0.39761-0.48478 0.90756-0.60801 1.1332-0.39616 0.72546-0.66253 1.2808-0.66253 1.3814 0 0.11936 0.08728 0.21287 0.22742 0.24366 0.0576 0.01266 0.12231 0.0292 0.14381 0.03677 0.02149 0.0076 1.1469 0.01042 2.5009 0.0064 2.2632-0.0068 2.4719-0.01293 2.587-0.07584zm6.3544 0.03136c0.25835-0.09214 0.33754-0.19108 0.69154-0.86396 0.11241-0.21368 0.59149-1.1183 1.0646-2.0102 0.47312-0.89193 0.90126-1.6997 0.95143-1.795 0.06788-0.12895 0.0803-0.18644 0.04855-0.22469-0.03451-0.04159-0.56086-0.05141-2.7557-0.05141-2.988 0-2.8445-0.01155-3.0334 0.24419-0.05162 0.06987-0.17817 0.29409-0.28123 0.49827s-0.55673 1.057-1.0082 1.8952c-0.90954 1.6888-1.0435 1.9551-1.0435 2.0748-3.9e-5 0.10602 0.11946 0.21246 0.28168 0.2509 0.07073 0.01676 1.2101 0.0315 2.5318 0.03275 1.9326 0.0018 2.4324-0.0081 2.5524-0.0509zm6.4155 0.01353c0.25757-0.06486 0.39634-0.236 0.77922-0.96108 0.1907-0.36114 0.57264-1.0805 0.84874-1.5986 0.2761-0.51811 0.502-0.97103 0.502-1.0065 0-0.0594-0.22428-0.06367-2.857-0.05444l-2.857 0.01002-0.66282 1.2309c-1.0004 1.8579-1.0975 2.0582-1.0573 2.182 0.01934 0.05961 0.09107 0.1331 0.16816 0.17228 0.12369 0.06286 0.32766 0.06833 2.5497 0.06838 1.6306 3.9e-5 2.4708-0.01393 2.5863-0.04302zm6.612-0.0448c0.15606-0.08534 0.26594-0.23218 0.48981-0.65458 0.09683-0.18268 0.38719-0.72781 0.64525-1.2114 1.1041-2.069 1.534-2.8945 1.534-2.9458 0-0.03011-0.0275-0.06531-0.0612-0.07823s-1.2656-0.02394-2.7376-0.0245c-3.0124-0.0011-2.8675-0.01492-3.0391 0.28894-0.18035 0.31948-1.9726 3.6855-2.1294 3.9994-0.08838 0.17683-0.1607 0.36461-0.1607 0.41728 0 0.11733 0.08808 0.21086 0.22742 0.24148 0.0576 0.01266 0.12231 0.0292 0.1438 0.03677 0.02149 0.0076 1.1469 0.01042 2.5009 0.0064 2.2619-0.0068 2.472-0.01295 2.5868-0.07575zm5.0852 0.02759c0.23844-0.07081 0.44914-0.24291 0.55755-0.45542 0.0733-0.14357 0.0774-0.23233 0.0767-1.6226-4.7e-4 -0.80891-0.0155-1.4854-0.0334-1.5033-0.0179-0.0179-0.69088-0.02794-1.4955-0.0223l-1.4629 0.01025-0.56015 1.0355c-0.7902 1.4608-1.1788 2.2201-1.1788 2.3034 0 0.11335 0.12653 0.24004 0.27448 0.27484 0.0747 0.01757 0.91955 0.03375 1.8774 0.03595 1.4642 0.0034 1.7739-0.0056 1.9446-0.05629zm-22.237-4.033c0.04298-0.03761 0.16305-0.22903 0.26682-0.42538 0.16219-0.30685 0.18133-0.36585 0.13633-0.42008-0.04727-0.05695-0.31513-0.06309-2.7543-0.06309-2.5527 0-2.7094 4e-3 -2.8381 0.07221-0.10725 0.05688-0.17765 0.15239-0.33154 0.44981-0.16542 0.31968-0.18639 0.38343-0.13677 0.41565 0.0366 0.02376 1.0954 0.03828 2.819 0.03865 2.5736 5.58e-4 2.7656-4e-3 2.8385-0.06779zm12.913 0.01954c0.03468-0.02687 0.15414-0.22073 0.26546-0.4308 0.16526-0.31186 0.19362-0.39254 0.15455-0.43962-0.04135-0.04982-0.41832-0.05766-2.7727-0.05766h-2.7248l-0.12796 0.08792c-0.15578 0.10704-0.49797 0.72002-0.45885 0.82196 0.02397 0.06247 0.21584 0.06704 2.8135 0.06704 2.1705 0 2.8017-0.01082 2.8508-0.04885zm9.9123 0.01321c0.084-0.0532 0.0327-0.36871-0.0881-0.54164-0.11757-0.16829-0.30857-0.30746-0.49558-0.36109-0.0718-0.0206-0.42476-0.03887-0.78427-0.0406-0.85865-0.0041-0.86433-0.0013-1.1723 0.5788-0.14539 0.27386-0.16247 0.32853-0.11273 0.36086 0.074 0.04809 2.5774 0.05155 2.653 0.0037zm-28.776 11.602c-0.01194-0.01932-0.0026-0.18923 0.02085-0.3776 0.02341-0.18836 0.03087-0.45163 0.01658-0.58504l-0.02598-0.24257 8.539-0.0029c4.6964-0.0016 8.6012 0.02098 8.6012 0.02098s1.9698-0.0026 2.6069-9e-3l1.939-0.01728 0.01916 0.53868c0.01054 0.29628 0.026 0.56506 0.03436 0.5973 0.01346 0.0519-0.94274 0.06193-8.3473 0.08752-6.7283 0.02326-12.156 0.02238-12.426-2e-3 -0.02149-0.0019-0.24531 0.0034-0.49736 0.01176-0.25206 0.0084-0.46805-5.16e-4 -0.47999-0.01983z" fill="#c51230"/>
</g>
</svg>
