<svg width="100%"  height="100%"  xmlns="http://www.w3.org/2000/svg" viewBox="0 0 100 100" preserveAspectRatio="none" class="lds-fidget-spinner">
    <g transform="rotate(6 50 50)">
      <g transform="translate(50 50)">
        <g ng-attr-transform="scale({{config.r}})" transform="scale(0.9)">
          <g transform="translate(-50 -58)">
            <path ng-attr-fill="{{config.c2}}" d="M27.1,79.4c-1.1,0.6-2.4,1-3.7,1c-2.6,0-5.1-1.4-6.4-3.7c-2-3.5-0.8-8,2.7-10.1c1.1-0.6,2.4-1,3.7-1c2.6,0,5.1,1.4,6.4,3.7 C31.8,72.9,30.6,77.4,27.1,79.4z" fill="#fc636b"></path>
            <path ng-attr-fill="{{config.c3}}" d="M72.9,79.4c1.1,0.6,2.4,1,3.7,1c2.6,0,5.1-1.4,6.4-3.7c2-3.5,0.8-8-2.7-10.1c-1.1-0.6-2.4-1-3.7-1c-2.6,0-5.1,1.4-6.4,3.7 C68.2,72.9,69.4,77.4,72.9,79.4z" fill="#6a67ce"></path>
            <circle ng-attr-fill="{{config.c4}}" cx="50" cy="27" r="7.4" fill="#ffb900"></circle>
          </g>
        </g>
      </g>
      <animateTransform attributeName="transform" type="rotate" calcMode="linear" values="0 50 50;360 50 50" keyTimes="0;1" dur="1s" begin="0s" repeatCount="indefinite"></animateTransform>
    </g>
  </svg>