<?xml version="1.0" encoding="UTF-8"?>
<svg width="305.73mm" height="296.35mm" version="1.1" viewBox="0 0 305.72641 296.35464" xmlns="http://www.w3.org/2000/svg" xmlns:cc="http://creativecommons.org/ns#" xmlns:dc="http://purl.org/dc/elements/1.1/" xmlns:rdf="http://www.w3.org/1999/02/22-rdf-syntax-ns#">
<g transform="translate(368.79 -61.073)" fill="#fff" stroke-width=".35278">
<path d="m-144.31 125.14c-12.346-2.7407-22.295-12.623-25.264-25.093-0.61999-2.6042-0.71032-3.851-0.56931-7.8579 0.17862-5.0759 0.62266-7.2045 2.387-11.443 3.2503-7.8075 10.455-14.909 18.146-17.885 5.7564-2.2279 17.206-2.2302 22.942-0.0047 6.6468 2.5786 13.059 7.9056 16.535 13.736 3.4476 5.7833 5.1323 13.126 4.4714 19.488-0.45231 4.3537-1.242 7.105-3.2005 11.15-4.1523 8.5764-11.171 14.535-20.35 17.276-3.9857 1.1902-11.223 1.4941-15.098 0.63389zm-17.11 232.03c-3.005-0.49172-6.3061-2.8091-8.3181-5.8394-1.0843-1.6331-1.2456-2.2003-1.5579-5.4773-0.19156-2.0106-0.5193-15.416-0.72829-29.789-0.20899-14.374-0.46024-26.214-0.55834-26.312s-5.1276-0.28152-11.177-0.4076c-6.049-0.12609-11.423-0.34036-11.943-0.47616-0.51954-0.1358-1.0375-0.48894-1.151-0.78476-0.11352-0.29581 3.935-17.228 8.9967-37.627 7.3864-29.768 15.999-64.849 17.102-69.656 0.13915-0.60679-0.12408-1.1279-1.0246-2.0285-1.4372-1.4372-1.7536-1.4784-2.8602-0.37173-1.22 1.22-2.7115 6.2658-7.5874 25.669-8.2037 32.646-9.0928 35.512-11.951 38.52-2.1863 2.3008-3.6413 2.8754-7.2827 2.8761-2.8102 7.1e-4 -3.4097-0.11801-5.2178-1.0318-3.7825-1.9117-6.3649-5.6641-6.3125-9.1723 0.0458-3.0671 3.0511-16.521 9.9343-44.472 7.2261-29.344 12.073-47.067 13.677-50.015 1.9877-3.652 6.7594-7.176 11.378-8.403 2.1442-0.5696 49.244-0.83009 67.028-0.3707 14.526 0.37524 15.255 0.47892 18.475 2.6258 2.4524 1.6352 5.7086 4.9876 6.5511 6.7447 1.492 3.1118 21.496 82.559 22.303 88.577 0.66484 4.9589 0.72818 6.189 0.36772 7.142-0.2022 0.53456-0.45589 1.3804-0.56374 1.8796-0.36401 1.6848-2.5076 4.0156-4.833 5.255-4.2043 2.2409-9.0928 1.7539-12.609-1.2562-3.0851-2.6407-3.2434-3.1298-11.295-34.893-6.2714-24.741-7.4552-28.814-8.6101-29.622-1.1027-0.77234-1.9269-0.67029-2.9641 0.36699-0.78704 0.78704-0.87666 1.102-0.67764 2.3812 0.44042 2.831 5.2936 22.916 14.379 59.506 11.2 45.106 11.782 47.54 11.449 47.873-0.47203 0.47204-5.4988 0.75936-13.804 0.78903-4.4626 0.0159-8.6859 0.1236-9.3851 0.23925l-1.2712 0.21028-0.25418 23.863c-0.30479 28.615-0.53597 33.804-1.6179 36.319-0.94303 2.1921-4.2332 5.4347-6.5998 6.5044-1.4566 0.65836-2.3331 0.76287-6.4482 0.76884-4.5929 7e-3 -4.8286-0.0293-6.6179-1.0116-2.1063-1.1562-5.5841-4.539-6.4981-6.3206-1.2494-2.4353-1.4025-5.3386-1.705-32.329-0.16417-14.649-0.30973-26.992-0.32348-27.428-0.0245-0.77901-0.10601-0.79375-4.3872-0.79375h-4.3622l-0.21578 27.076c-0.11867 14.892-0.3636 27.982-0.54428 29.09-0.68588 4.2056-3.4014 8.1617-7.1455 10.41-1.7533 1.0529-2.173 1.1474-5.7714 1.2996-2.1343 0.0903-4.5949 0.0473-5.468-0.0956z" fill-opacity=".50196"/>
<path d="m-174.74 197.25c-3.4397 14.056-8.5493 34.799-13.117 53.208-5.0617 20.399-9.1104 37.331-8.9969 37.627 0.11351 0.29582 0.63181 0.64865 1.1514 0.78445 0.51953 0.1358 5.8934 0.35036 11.942 0.47645 6.049 0.12608 11.079 0.30911 11.177 0.40721s0.34912 11.939 0.55811 26.313c0.20899 14.374 0.53656 27.779 0.72812 29.789 0.31224 3.277 0.47372 3.844 1.558 5.4772 2.012 3.0303 5.3133 5.3477 8.3184 5.8394 0.87312 0.1429 3.3336 0.18589 5.4679 0.0956 3.5984-0.15227 4.0179-0.2468 5.7712-1.2997 3.7441-2.2483 6.4594-6.2046 7.1453-10.41 0.18068-1.1079 0.426-14.198 0.54466-29.09l0.2155-27.076h4.3625c4.2812 0 4.3628 0.0147 4.3873 0.79375 0.0138 0.43656 0.15932 12.779 0.32349 27.428 0.30247 26.991 0.45542 29.894 1.7048 32.329 0.91403 1.7816 4.3915 5.1648 6.4978 6.3211 1.7893 0.98226 2.0253 1.0183 6.6182 1.0113 4.1151-6e-3 4.9916-0.11059 6.4482-0.76895 2.3666-1.0697 5.6566-4.3119 6.5996-6.504 1.0819-2.515 1.3132-7.705 1.618-36.32l0.25424-23.863 1.2712-0.21032c0.69916-0.11565 4.9223-0.22336 9.385-0.23926 8.3054-0.0297 13.332-0.31706 13.804-0.7891 0.33281-0.33281-0.24931-2.7671-11.449-47.873-4.6101-18.567-8.2839-33.485-10.691-43.454m-103.5-0.0115c-5.2569 21.615-8.3106 35.319-8.351 38.02-0.0524 3.5082 2.5298 7.2608 6.3123 9.1726 1.8081 0.91384 2.4075 1.0322 5.2178 1.0315 3.6414-7.9e-4 5.0964-0.57503 7.2828-2.8758 2.8578-3.0074 4.0216-6.9901 12.225-39.636 0.52547-2.0911 0.99412-3.94 1.4449-5.7108m85.168-4e-3c0.70134 2.7352 1.8702 7.314 2.7633 10.837 8.0514 31.763 8.2098 32.252 11.295 34.892 3.5166 3.0101 8.4047 3.4971 12.609 1.2562 2.3253-1.2394 4.4693-3.5702 4.8333-5.255 0.10785-0.49922 0.36159-1.3449 0.56379-1.8795 0.36046-0.95292 0.2969-2.1828-0.36794-7.1417-0.30816-2.2985-3.9224-17.316-7.7302-32.693"/>
<path d="m-303.37 125.14c-11.364-2.1885-20.583-9.9949-24.855-21.047-1.8537-4.7958-2.272-13.638-0.89193-18.855 0.79611-3.0094 4.0265-9.4691 6.1005-12.199 3.5108-4.6212 8.1596-7.9062 14.741-10.416 5.6321-2.1483 16.235-2.0522 21.854 0.19792 7.0618 2.8277 13.448 8.1193 16.885 13.991 7.1921 12.286 5.1793 28.394-4.8583 38.878-4.0047 4.1828-9.5447 7.4139-15.294 8.9198-3.5401 0.92731-10.268 1.1882-13.682 0.53068zm22.304 232.05c-2.4116-0.31962-3.5151-0.66686-5.0744-1.5968-2.7177-1.6208-5.1072-4.0716-6.8063-6.9808l-1.4222-2.4351-0.23756-49.614-0.23756-49.614-0.96617-0.68798c-1.226-0.87297-2.2542-0.87167-3.4846 4e-3l-0.97233 0.69236-0.25709 49.314-0.25709 49.314-1.4503 2.6458c-1.8535 3.3814-4.6315 6.3018-7.4144 7.7944l-2.191 1.1751-5.2917 0.0132c-5.1432 0.0127-5.3511-0.0159-7.4083-1.0179-2.9745-1.4488-5.988-4.6208-7.8493-8.2618l-1.4993-2.9329-0.0166-58.269c-0.0204-71.639-0.42248-116.79-1.0467-117.54-0.84658-1.0201-3.4612-0.51614-4.0987 0.78994-0.16835 0.34494-0.38546 14.835-0.48247 32.201l-0.17639 31.574-1.5477 2.9278c-2.8587 5.4079-6.0996 7.7352-11.26 8.0856-3.4491 0.2342-7.4003-0.37683-9.5804-1.4815-2.6816-1.3589-5.105-4.68-6.33-8.675-0.44845-1.4624-0.49494-49.846-0.0639-66.474l0.26522-10.231 1.4381-3.2816c2.7119-6.1881 6.0975-10.671 11.103-14.701 3.6976-2.9772 10.081-6.1912 14.501-7.3016l3.2375-0.81318 38.806 0.0425c26.187 0.0286 39.926 0.17143 42.25 0.4391 14.749 1.6986 28.516 15.257 30.305 29.847 0.47233 3.8523 0.79032 61.51 0.37378 67.772-0.27273 4.1003-0.4782 5.2699-1.1687 6.6524-1.1033 2.2091-4.5676 5.9577-6.622 7.1654-1.5653 0.9202-1.8482 0.9627-6.4075 0.9627-4.6776 0-4.8154-0.0224-7.1208-1.1573-2.8952-1.4253-5.2254-3.9055-6.8581-7.2994l-1.1832-2.4595-0.0257-29.996c-0.0142-16.498-0.14777-30.855-0.2969-31.905-0.41326-2.9103-2.3912-4.0873-4.2879-2.5515-0.72835 0.58977-0.8338 1.0688-1.0678 4.8507-0.14279 2.308-0.37144 41.899-0.50814 87.981l-0.24853 83.785-1.2659 2.4694c-1.4753 2.878-4.7001 6.2507-7.3024 7.6372-2.357 1.2558-6.3615 1.6928-10.494 1.1452z" fill-opacity=".50196"/>
<path d="m-368.67 226.46c0.0597 4.3358 0.1497 7.8249 0.25274 8.1609 1.225 3.995 3.6482 7.316 6.3298 8.6749 2.18 1.1047 6.1312 1.7158 9.5803 1.4816 5.1602-0.35038 8.4011-2.6779 11.26-8.0858l1.5477-2.9275 0.0233-7.3016m5.6472 1e-3c0.0795 16.913 0.12732 37.352 0.13385 60.278l0.0165 58.269 1.4991 2.9326c1.8613 3.641 4.8752 6.8132 7.8496 8.262 2.0573 1.002 2.2651 1.0302 7.4083 1.0175l5.2917-0.013 2.1911-1.1751c2.7828-1.4926 5.5605-4.413 7.414-7.7944l1.4506-2.6458 0.25683-49.314 0.25735-49.314 0.97204-0.69195c1.2303-0.87567 2.2586-0.8771 3.4845-4e-3l0.96635 0.68782 0.23771 49.615 0.23719 49.614 1.4221 2.435c1.6991 2.9092 4.0886 5.3601 6.8063 6.981 1.5593 0.92994 2.663 1.2772 5.0746 1.5968 4.1326 0.54766 8.1369 0.11068 10.494-1.1452 2.6023-1.3865 5.8271-4.7592 7.3024-7.6372l1.2661-2.4691 0.24856-83.785c0.0367-12.387 0.0774-24.849 0.12403-35.7m6.0575 0 5e-3 7.3212 1.1834 2.4593c1.6327 3.3939 3.9627 5.8745 6.858 7.2998 2.3054 1.1349 2.4428 1.157 7.1205 1.157 4.5594 0 4.8425-0.0425 6.4079-0.96273 2.0544-1.2077 5.5186-4.9564 6.6218-7.1654 0.69046-1.3825 0.89568-2.552 1.1684-6.6523 0.0238-0.35827 0.0129-2.7819 0.032-3.4569"/>
</g>
</svg>
