<?xml version="1.0" encoding="UTF-8"?>
<svg width="149.93mm" height="296.13mm" version="1.1" viewBox="0 0 149.93355 296.1257" xmlns="http://www.w3.org/2000/svg" xmlns:cc="http://creativecommons.org/ns#" xmlns:dc="http://purl.org/dc/elements/1.1/" xmlns:rdf="http://www.w3.org/1999/02/22-rdf-syntax-ns#">
<g transform="translate(212.99 -61.187)" fill="#fff">
<path d="m-144.31 125.14c-12.346-2.7407-22.295-12.623-25.264-25.093-0.61999-2.6042-0.71032-3.851-0.56931-7.8579 0.17862-5.0759 0.62266-7.2045 2.387-11.443 3.2503-7.8075 10.455-14.909 18.146-17.885 5.7564-2.2279 17.206-2.2302 22.942-0.0047 6.6468 2.5786 13.059 7.9056 16.535 13.736 3.4476 5.7833 5.1323 13.126 4.4714 19.488-0.45231 4.3537-1.242 7.105-3.2005 11.15-4.1523 8.5764-11.171 14.535-20.35 17.276-3.9857 1.1902-11.223 1.4941-15.098 0.63389zm-17.11 232.03c-3.005-0.49172-6.3061-2.8091-8.3181-5.8394-1.0843-1.6331-1.2456-2.2003-1.5579-5.4773-0.19156-2.0106-0.5193-15.416-0.72829-29.789-0.20899-14.374-0.46024-26.214-0.55834-26.312s-5.1276-0.28152-11.177-0.4076c-6.049-0.12609-11.423-0.34036-11.943-0.47616-0.51954-0.1358-1.0375-0.48894-1.151-0.78476-0.11352-0.29581 3.935-17.228 8.9967-37.627 7.3864-29.768 15.999-64.849 17.102-69.656 0.13915-0.60679-0.12408-1.1279-1.0246-2.0285-1.4372-1.4372-1.7536-1.4784-2.8602-0.37173-1.22 1.22-2.7115 6.2658-7.5874 25.669-8.2037 32.646-9.0928 35.512-11.951 38.52-2.1863 2.3008-3.6413 2.8754-7.2827 2.8761-2.8102 7.1e-4 -3.4097-0.11801-5.2178-1.0318-3.7825-1.9117-6.3649-5.6641-6.3125-9.1723 0.0458-3.0671 3.0511-16.521 9.9343-44.472 7.2261-29.344 12.073-47.067 13.677-50.015 1.9877-3.652 6.7594-7.176 11.378-8.403 2.1442-0.5696 49.244-0.83009 67.028-0.3707 14.526 0.37524 15.255 0.47892 18.475 2.6258 2.4524 1.6352 5.7086 4.9876 6.5511 6.7447 1.492 3.1118 21.496 82.559 22.303 88.577 0.66484 4.9589 0.72818 6.189 0.36772 7.142-0.2022 0.53456-0.45589 1.3804-0.56374 1.8796-0.36401 1.6848-2.5076 4.0156-4.833 5.255-4.2043 2.2409-9.0928 1.7539-12.609-1.2562-3.0851-2.6407-3.2434-3.1298-11.295-34.893-6.2714-24.741-7.4552-28.814-8.6101-29.622-1.1027-0.77234-1.9269-0.67029-2.9641 0.36699-0.78704 0.78704-0.87666 1.102-0.67764 2.3812 0.44042 2.831 5.2936 22.916 14.379 59.506 11.2 45.106 11.782 47.54 11.449 47.873-0.47203 0.47204-5.4988 0.75936-13.804 0.78903-4.4626 0.0159-8.6859 0.1236-9.3851 0.23925l-1.2712 0.21028-0.25418 23.863c-0.30479 28.615-0.53597 33.804-1.6179 36.319-0.94303 2.1921-4.2332 5.4347-6.5998 6.5044-1.4566 0.65836-2.3331 0.76287-6.4482 0.76884-4.5929 7e-3 -4.8286-0.0293-6.6179-1.0116-2.1063-1.1562-5.5841-4.539-6.4981-6.3206-1.2494-2.4353-1.4025-5.3386-1.705-32.329-0.16417-14.649-0.30973-26.992-0.32348-27.428-0.0245-0.77901-0.10601-0.79375-4.3872-0.79375h-4.3622l-0.21578 27.076c-0.11867 14.892-0.3636 27.982-0.54428 29.09-0.68588 4.2056-3.4014 8.1617-7.1455 10.41-1.7533 1.0529-2.173 1.1474-5.7714 1.2996-2.1343 0.0903-4.5949 0.0473-5.468-0.0956z" fill-opacity=".50196" stroke-width=".35278"/>
<path transform="matrix(.26458 0 0 .26458 -212.99 61.187)" d="m144.57 514.25c-13 53.126-32.312 131.52-49.577 201.1-19.131 77.099-34.433 141.09-34.004 142.21 0.42901 1.1181 2.3879 2.4516 4.3516 2.9648 1.9636 0.51326 22.274 1.3242 45.137 1.8008 22.863 0.47652 41.873 1.1683 42.244 1.5391 0.37077 0.37078 1.3195 45.124 2.1094 99.449 0.78988 54.326 2.0279 104.99 2.752 112.59 1.1801 12.386 1.7905 14.529 5.8887 20.701 7.6044 11.453 20.082 20.212 31.439 22.07 3.3 0.5401 12.599 0.7026 20.666 0.3613 13.6-0.5755 15.186-0.9328 21.812-4.9121 14.151-8.4976 24.414-23.451 27.006-39.346 0.68289-4.1872 1.6101-53.662 2.0586-109.95l0.81446-102.33h16.488c16.181 0 16.489 0.0557 16.582 3 0.052 1.65 0.60217 48.299 1.2227 103.67 1.1432 102.01 1.7212 112.99 6.4434 122.19 3.4546 6.7338 16.598 19.521 24.559 23.891 6.7628 3.7125 7.6548 3.8487 25.014 3.8223 15.553-0.023 18.866-0.418 24.371-2.9063 8.9448-4.0429 21.379-16.297 24.943-24.582 4.0891-9.5054 4.9633-29.121 6.1152-137.27l0.96094-90.189 4.8047-0.79492c2.6425-0.4371 18.604-0.8442 35.471-0.9043 31.39-0.11214 50.39-1.1983 52.174-2.9824 1.2579-1.2579-0.94229-10.458-43.271-180.94-17.424-70.175-31.309-126.56-40.407-164.24m-391.18-0.04353c-19.868 81.693-31.41 133.49-31.563 143.7-0.19797 13.259 9.5615 27.443 23.857 34.668 6.8337 3.4539 9.0993 3.9011 19.721 3.8984 13.763-3e-3 19.262-2.1733 27.525-10.869 10.801-11.367 15.2-26.419 46.206-149.81 1.986-7.9033 3.7573-14.891 5.4609-21.584m321.89-0.0164c2.6508 10.338 7.0686 27.643 10.444 40.96 30.43 120.05 31.029 121.9 42.689 131.88 13.291 11.377 31.766 13.218 47.656 4.748 8.7887-4.6843 16.892-13.494 18.268-19.861 0.40762-1.8868 1.3666-5.0831 2.1309-7.1035 1.3624-3.6016 1.1222-8.25-1.3906-26.992-1.1647-8.6871-14.825-65.448-29.216-123.56" stroke-width="1.3333"/>
</g>
</svg>
