<?xml version="1.0" encoding="UTF-8"?>
<svg width="59.356mm" height="57.397mm" version="1.1" viewBox="0 0 59.355938 57.396648" xmlns="http://www.w3.org/2000/svg" xmlns:cc="http://creativecommons.org/ns#" xmlns:dc="http://purl.org/dc/elements/1.1/" xmlns:rdf="http://www.w3.org/1999/02/22-rdf-syntax-ns#">
<g transform="translate(-5.6064 -7.2784)">
<path d="m37.789 64.129-0.69714-0.54837v-11.078c0-7.2969-0.0928-11.135-0.27184-11.246-0.15612-0.0965-0.79073 0.93876-1.4907 2.4318-1.3576 2.8958-2.0315 3.7904-2.8549 3.7904-0.94811 0-1.7325-0.74069-1.7325-1.636 0-1.0077 5.6631-13.582 6.5323-14.504 0.61443-0.65185 0.68481-0.66146 4.8435-0.66146 3.8681 0 4.2638 0.0441 4.7463 0.52917 0.70227 0.70605 6.6321 13.722 6.6321 14.558 0 1.329-1.6678 2.1782-2.7163 1.3831-0.23991-0.1819-1.0308-1.6106-1.7575-3.175-0.72673-1.5644-1.4461-2.8443-1.5987-2.8443-0.18909 0-0.27741 3.5416-0.27741 11.125v11.125l-0.64944 0.64944c-0.78823 0.78823-1.9572 0.8478-2.827 0.14405-0.62125-0.50264-0.62534-0.54308-0.75692-7.4745l-0.13229-6.9691h-1.3229l-0.14355 6.8792c-0.079 3.7835-0.16825 6.9043-0.19844 6.935-1.2754 1.2974-2.2126 1.4626-3.3265 0.58642zm-16.51-0.12463c-0.42707-0.17957-0.88361-0.54809-1.0145-0.81893-0.13092-0.27085-0.29757-5.4931-0.37032-11.605l-0.1323-11.112-1.5168 3.1027c-1.2177 2.4909-1.6481 3.1356-2.1828 3.2698-1.8791 0.47162-2.7669-0.78596-1.977-2.8006 1.3145-3.353 5.8842-12.893 6.3687-13.295 0.47552-0.39515 1.1329-0.46303 4.4842-0.46303 2.33 0 4.1909 0.12026 4.576 0.29571 0.46434 0.21157 1.033 1.1207 1.9986 3.1951l1.3495 2.8993-0.76856 1.7659c-0.44314 1.0182-1.004 1.8765-1.3246 2.0271-0.41592 0.19535-0.55607 0.50482-0.55607 1.2279 0 0.53169-0.23551 1.4857-0.52336 2.1201-0.66769 1.4714-0.66909 2.5177-5e-3 3.6072 0.49394 0.81014 0.52818 1.3365 0.52818 8.1212 0 7.1422-9e-3 7.2656-0.59532 7.9469-0.78501 0.91258-2.0846 0.96915-2.9782 0.12965l-0.65102-0.61161-0.0705-6.771-0.0705-6.771-0.71499-0.0825-0.71498-0.0825-0.0788 6.8682c-0.071 6.19-0.12605 6.9204-0.55762 7.3969-0.62267 0.68739-1.5333 0.84769-2.5019 0.44043zm28.152-6.49-0.69714-0.54837v-4.611c0-2.536 0.0298-4.6105 0.0661-4.6099 0.0364 5.3e-4 0.65187 0.29827 1.3678 0.66146 0.71588 0.36319 1.5791 0.66035 1.9182 0.66035h0.61661v7.8991l-0.69714 0.54837c-0.38342 0.30161-0.96268 0.54837-1.2872 0.54837-0.32456 0-0.90381-0.24676-1.2872-0.54837zm5.7618-0.11236-0.66073-0.66073 0.11139-4.8294c0.0613-2.6562 0.19768-5.2692 0.30312-5.8068 0.1723-0.87845-0.1339-1.696-3.0225-8.0698-2.5634-5.6563-3.406-7.2645-4.1616-7.9429-1.0216-0.91725-1.0191-0.85301-0.12252-3.2106 1.1262-2.9613 1.3911-3.0711 7.0238-2.9118 2.8993 0.082 3.3795 0.16031 3.8204 0.62296 0.27737 0.29104 1.9017 3.6213 3.6097 7.4005 3.3706 7.4582 3.4353 7.7488 1.9162 8.5986-1.2456 0.69679-1.9419 0.0501-3.4056-3.1629-0.69509-1.5258-1.3881-2.8157-1.5401-2.8663-0.18902-0.063-0.2763 3.347-0.2763 10.795 0 11.132-0.0393 11.601-1.0354 12.366-0.70023 0.53762-1.8443 0.39389-2.5598-0.32159zm-22.954-0.35229c-0.3636-0.40177-0.43788-1.1128-0.43788-4.1911v-3.7072l1.4328-0.34374c2.3048-0.55291 2.2713-0.61064 2.2713 3.9141 0 3.4772-0.0564 3.9871-0.48385 4.3739-0.6539 0.59176-2.2288 0.56574-2.7824-0.046zm-20.282-1.3682c-0.5106-0.51059-0.52916-0.88194-0.52916-10.583 0-6.5821-0.0921-10.054-0.2668-10.054-0.14674 0-0.74559 1.0363-1.3308 2.3029-1.2671 2.7426-1.6849 3.2533-2.6618 3.2533-0.72906 0-1.5615-0.80122-1.5615-1.5029 0-0.67095 5.6185-12.671 6.1442-13.123 0.47453-0.40788 1.0045-0.46065 3.9862-0.39687 2.739 0.0586 3.4796 0.15433 3.6388 0.47043 0.10991 0.21828 0.40913 0.90398 0.66494 1.5238l0.46511 1.1269-0.96405 0.85747c-0.77689 0.69101-1.5811 2.2133-4.1423 7.8412-2.1869 4.8053-3.178 7.2812-3.1773 7.9375 1e-3 1.314 0.8228 2.5545 1.965 2.9676l0.94438 0.34149v3.3714c0 3.184-0.0327 3.3943-0.58804 3.7833-0.81033 0.56758-1.9539 0.51573-2.587-0.11729zm5.3206-0.15557c-0.49837-0.63358-0.55813-1.0544-0.55813-3.9314v-3.2218l0.79786-0.58988c0.60798-0.4495 0.83006-0.50592 0.93323-0.23709 0.0745 0.19404 0.10237 2.1835 0.062 4.421-0.0785 4.3546-0.24099 4.8229-1.235 3.5592zm16.182-21.342c-0.14214-0.1819-0.69697-1.2535-1.233-2.3812-0.536-1.1278-1.0594-2.0532-1.163-2.0564-0.10367-3e-3 -0.45765-0.21305-0.78661-0.46626l-0.59811-0.46039 0.91739-2.2082c0.50457-1.2145 1.1309-2.3701 1.3919-2.568 0.30122-0.22846 1.2121-0.36293 2.4947-0.36827l2.0202-8e-3 -0.0301 1.6536c-0.0199 1.0945 0.12454 1.9582 0.42717 2.5542 0.60987 1.2012 0.57948 1.4582-0.22323 1.8878-0.44066 0.23583-1.0547 1.1374-1.7425 2.5582-0.5841 1.2068-1.0967 2.1941-1.1392 2.1941-0.0425 0-0.19351-0.14882-0.33564-0.33073zm6.5409-5.0271c-2.0342-1.3844-2.6485-3.541-1.5602-5.4773 0.85365-1.5188 1.9365-2.1295 3.7762-2.1295 1.339 0 1.5961 0.0964 2.5459 0.95456 2.284 2.0635 1.8826 5.4684-0.80884 6.8602-1.1344 0.5866-2.9239 0.49247-3.9531-0.20794zm-16.661-0.26459c-1.4825-0.7575-2.1446-1.6737-2.3174-3.2065-0.16986-1.507 0.24907-2.5728 1.4129-3.5947 3.0026-2.6363 7.6217 0.14699 6.7302 4.0554-0.39913 1.7497-2.4157 3.333-4.2537 3.3396-0.22383 8.2e-4 -0.93124-0.26642-1.572-0.59384zm-8.996-4.6306c-1.4161-0.71148-2.1937-2.0499-2.0553-3.5377 0.14563-1.5653 0.96262-2.7031 2.3353-3.2523 1.3988-0.55971 2.6743-0.32797 3.8431 0.69826 1.9956 1.7522 1.5843 4.9992-0.77503 6.1187-1.181 0.56041-2.1951 0.55223-3.348-0.027zm32.077-2.1634c-0.79919-0.92802-1.5234-1.4531-2.5135-1.8225-2.2059-0.82288-1.84-1.2261 1.1934-1.3151 2.2901-0.0672 2.6005-0.022 2.7271 0.39688 0.0785 0.25996 0.37761 1.068 0.66463 1.7956l0.52185 1.3229-0.56625 0.46302c-0.31144 0.25466-0.64236 0.46296-0.73538 0.46289-0.093-7e-5 -0.67431-0.58676-1.2918-1.3037zm5.0574 0.37948c-1.2859-0.77081-1.9507-2.0032-1.9494-3.6135 0.0021-2.6456 2.5611-4.5864 5.1438-3.9014 1.9347 0.51313 3.0573 2.0169 3.0573 4.0955 0 3.221-3.4421 5.1037-6.2517 3.4195zm-21.634-0.42302c-0.60771-1.0288-2.5283-2.2634-3.875-2.4909-0.6558-0.11079-1.5686-0.0165-2.5214 0.26047-0.82137 0.23878-1.5443 0.38326-1.6065 0.32108-0.19801-0.19802 1.6507-4.0033 2.1415-4.4081 0.53166-0.43839 5.032-0.72175 6.648-0.41858 0.83624 0.15688 0.93499 0.25345 0.77535 0.75815-0.50156 1.5857-0.45564 3.5492 0.11307 4.8348 0.53765 1.2154 0.54399 1.3085 0.1108 1.6252-0.73588 0.53809-1.2681 0.39437-1.786-0.48225zm5.7098 0.55646c-1.7552-0.41545-2.9593-2.1177-2.9593-4.1839 0-1.5563 0.74751-2.8057 2.1125-3.5311 2.7742-1.4742 6.2619 0.72332 6.0387 3.8048-0.0727 1.0042-0.20998 1.211-1.2752 1.921-0.65652 0.43762-1.5143 1.1231-1.9062 1.5233-0.39189 0.40018-0.80724 0.71541-0.92299 0.70052-0.11576-0.0149-0.6052-0.12051-1.0877-0.2347zm8.8147-4.8742c-2.6236-1.166-3.1683-4.3531-1.0603-6.2039 1.9942-1.7509 4.6821-1.2053 5.922 1.2022 0.50399 0.97855 0.33395 2.1066-0.52605 3.4901-1.117 1.7969-2.561 2.3004-4.3357 1.5116zm-17.132-3.2624c-1.0672-0.15164-2.4998-1.6209-2.7188-2.7885-0.25242-1.3455 4e-3 -2.1675 1.0235-3.2799 1.6933-1.8477 4.6025-1.3578 5.8084 0.97831 1.3541 2.6231-0.99716 5.5328-4.1131 5.09z" fill="#fff" stroke-width=".26458"/>
</g>
</svg>
