<?xml version="1.0" encoding="UTF-8"?>
<svg width="6.4444" height="2.4167" version="1.1" viewBox="0 0 6444 2417" xmlns="http://www.w3.org/2000/svg">
  <g fill="#fff" fill-rule="nonzero"><path transform="matrix(10.418 0 0 10.418 -.67345 0)" d="m78.389-0.57617-10.941 106.93h225.57l10.941-106.93h-225.57zm57.594 53.945c14.206-0.095988 22.94 8.8309 24.188 20.445 0.09602 1.2478 0.19141 2.4944 0.19141 3.7422 0 7.391-2.4939 14.494-7.1973 19.197-4.5114 4.5114-11.136 7.1035-19.199 7.1035h-0.0957v-0.0957c-13.918 0-22.94-9.1189-24.188-20.445l-0.0957 0.095703c-0.09596-1.1518-0.19336-2.3989-0.19336-3.5508 0-7.4869 2.593-14.495 7.4883-19.391 4.6074-4.4154 11.327-7.1016 19.102-7.1016zm58.07 0c5.7592 0 10.272 1.1517 12.096 2.0156 0.38391 0.19197 0.6705 0.67046 0.47851 1.1504l-2.207 8.1602c-0.09598 0.28796-0.28848 0.48018-0.48047 0.57617-0.28796 0.09599-0.57563 0.09599-0.76757 0-1.3438-0.57592-4.8955-1.4414-9.2148-1.4414s-8.2538 1.2493-10.941 3.457c-3.2635 2.6876-5.2793 6.8145-5.2793 12.094 0 0.76789-2.9e-4 1.5348 0.0957 2.3027 0.86388 7.103 5.566 11.615 14.301 11.711 2.4963 0 4.8931-0.2736 6.9024-0.7207l-4.75 11.037c-1.2696 0.09147-2.6193 0.14648-4.0703 0.14648h-0.09765c-14.11 0-24.668-7.8719-26.107-20.83-0.09602-1.2478-0.19141-2.3989-0.19141-3.5508 0-9.3107 4.3178-16.702 11.133-21.021 5.2793-3.4555 11.615-5.0859 19.102-5.0859zm-109.81 0.76758h11.135c0.28796 0 0.57588 0.095136 0.67188 0.28711 0.19198 0.19197 0.28906 0.47962 0.28906 0.76758l-3.7441 37.244h16.855c0.775 1.526 1.7133 2.9634 2.793 4.2988l-0.54687 5.5879c-0.096 0.47993-0.48102 0.86328-0.96094 0.86328v-0.09571h-31.195c-0.28796 0-0.57588-0.09709-0.67188-0.28906-0.19197-0.19197-0.28711-0.47961-0.28711-0.76758l4.7031-47.033c0.095987-0.47993 0.47905-0.86328 0.95898-0.86328zm135.25 0h14.301c0.47992 0 0.86493 0.28764 0.96093 0.76758l11.23 47.033c0.09599 0.28796 5.7e-4 0.57532-0.1914 0.86328-0.19198 0.19197-0.48158 0.38477-0.76954 0.38477h-11.709v-0.09571c-0.47993 0-0.86494-0.28764-0.96094-0.76757l-2.3027-11.424h-13.535l-4.5117 11.615c-0.19197 0.38396-0.47933 0.57617-0.86328 0.57617h-11.902c-0.28796 0-0.67158-0.19253-0.76758-0.48046-0.192-0.28796-0.19171-0.57533-0.0957-0.86329l20.252-47.033c0.19196-0.38395 0.4813-0.57617 0.86523-0.57617zm37.146 0h11.135c0.28796 0 0.57588 0.095136 0.67188 0.28711 0.19201 0.19197 0.28711 0.47962 0.28711 0.76758l-3.7422 37.244h19.004c0.28796 0 0.57588 0.095136 0.67187 0.28711 0.19197 0.19197 0.28907 0.47962 0.28906 0.76758l-0.86523 8.832c-0.09599 0.47993-0.47905 0.86328-0.95898 0.86328h-31.195v-0.09571c-0.28796 0-0.57587-0.09709-0.67187-0.28906-0.19196-0.19197-0.28906-0.47961-0.28906-0.76758l4.7031-47.033c0.09599-0.47993 0.48101-0.86328 0.96094-0.86328zm-121.13 9.5977c-3.9354 0-6.9114 2.1115-9.1191 5.375-2.1117 3.2635-3.3594 7.5838-3.3594 11.615 0 0.76789-3e-4 1.5351 0.0957 2.207 0.76789 6.3351 4.1277 10.656 11.135 10.752h0.0957v0.86328h0.0957v-0.96094c3.7435-1e-6 6.6227-2.1115 8.7344-5.375 2.1117-3.2635 3.2637-7.5818 3.2637-11.613 0-0.76789 2.9e-4 -1.5371-0.0957-2.209-0.76791-5.6632-3.1668-10.654-10.846-10.654zm89.939 2.5918c-0.67191 2.1117-1.4394 4.3208-2.1113 6.1445l-3.457 8.8301h8.6387l-1.9199-8.9277c-0.38395-1.7278-0.76645-3.9352-1.1504-6.0469z" stroke-width=".095986"/><path d="m5527 1395c0 21-7 40-21 55-24 27-68 43-119 43h-54c3-33 15-154 17-178 14-2 31-3 53-3 35 0 116 7 123 73 0 4 1 7 1 11zm175 403-18-78c-14-64-39-109-74-136 97-40 150-112 150-202 0-9-1-18-2-27-8-73-51-131-125-168-58-31-140-48-243-47-91 0-179 8-235 20-9 2-15 9-16 18l-76 769c-1 6 1 11 5 16 4 4 9 7 15 7h184c11 0 19-8 20-18 0 0 25-259 28-291h38c59 0 94 17 113 108 11 57 32 159 47 190 3 7 11 12 18 12h191c7 0 14-4 18-10 2-3 3-7 3-10 0-4-1-7-3-10-12-20-26-81-39-140z"/><path d="m961 2069h-125l-33 341h-53l34-341h-125l5-41h301z"/><path d="m1266 2377c91 0 149-104 138-197-6-55-33-119-126-119-96 0-149 108-139 196 7 62 44 120 126 120zm-2 40c-110 0-170-74-179-156-7-66 13-137 56-184 33-34 85-56 141-56 114 0 169 75 179 157 7 65-11 136-53 181-34 36-82 57-142 57h-1z"/><path d="m1670 2371c19 2 39 3 55 3 68 0 115-18 146-51 35-35 48-89 42-144-7-66-50-116-155-116-20 0-43 1-58 4l-30 303zm-19-338c32-5 67-8 104-8 72 0 128 18 163 50 26 21 47 56 52 103 8 68-15 140-65 182-45 37-105 53-187 53-37 0-76-2-103-5l37-375z"/><path d="m2321 2252-30-111c-4-20-11-48-15-70h-2c-9 23-17 47-27 70l-51 111h124zm-139 38-54 121h-55l176-383h62l102 383h-54l-31-121h-147z"/><path d="m2633 2410 16-159-107-224h56l55 124c15 34 20 49 25 64h1c9-16 21-38 38-66l78-122h61l-156 223-15 160z"/><path d="m1687 1597c15-39 55-141 55-141 10-26 21-57 31-87 1 3 16 84 16 84s21 98 31 144h-132zm436 347-189-784c-2-9-10-16-20-16h-239c-8 0-15 5-19 12l-262 609 5 23c10 44 25 111 33 126l32 55h72c8 0 16-5 19-13 0 0 65-168 74-191h220c6 28 38 187 38 187 2 9 10 16 20 16h195c6 0 12-3 16-8s5-11 4-17z"/><path d="m4573 1361c30-34 66-51 106-51 94 0 147 58 159 174 10 98-21 208-75 268-29 32-62 48-99 48h-1c-127 0-157-110-164-175-10-98 20-204 74-264zm485 114c-21-210-168-345-372-345-117 0-221 43-294 120-84 93-126 237-111 385 21 207 171 345 374 345h1c122 0 224-42 295-121 82-90 122-233 107-385z"/><path d="m746 1144h-710c-10 0-19 8-20 18l-16 147v2c0 5 2 10 5 13 4 4 9 7 15 7h274c-4 42-60 615-60 615v2c0 5 2 10 5 14 4 4 9 7 15 7h186c10 0 19-8 20-18 0 0 57-585 61-619h207l19-187z"/><path d="m6453 1160c-4-4-9-7-15-7h-700c-10 0-19 8-20 18l-1 13c49 41 78 94 88 156h166c-4 42-60 615-60 615v2c0 5 2 10 5 14 4 4 9 7 15 7h186c10 0 19-8 20-18 0 0 57-585 61-619h227c10 0 19-8 20-18l15-147v-4c0-4-2-9-5-12z"/><path d="m1158 1451c-24 27-68 43-119 43h-54c3-33 15-154 17-178 14-2 31-3 53-3 35 0 116 7 123 73 3 25-4 48-21 66zm196 348-18-78c-14-64-39-109-74-136 97-40 150-112 150-202 0-9-1-18-2-27-8-73-52-131-125-168-58-31-140-48-243-47-91 0-179 8-235 20-9 2-15 9-16 18l-76 769c-1 6 1 11 5 16 4 4 9 7 15 7h184c10 0 19-8 20-18 0 0 25-258 28-291h38c59 0 94 17 113 108 11 57 32 159 47 190 3 7 11 11 18 11h191c7 0 14-4 18-10 2-3 3-7 3-10 0-4-1-7-3-10-12-20-26-81-39-140z"/><path d="m2958 1151c-4-4-9-7-15-7h-174c-10 0-19 8-20 18l-27 285c-6 69-9 125-10 176-22-55-45-110-72-169 0-1-149-300-149-300-3-7-11-11-18-11h-218c-10 0-19 8-20 18l-77 784c-1 6 1 11 5 16 4 4 9 7 15 7h173c10 0 19-8 20-18l27-275c8-88 14-162 17-221 24 60 50 117 84 189l157 313c3 7 11 11 18 11h193c10 0 19-8 20-18l77-784c1-6-1-11-5-16z"/><path d="m3351 1471c-77-37-123-61-127-95-1-11 2-21 10-30 16-18 50-29 92-29 81-1 145 26 157 32 5 3 12 3 17 0 5-2 9-7 11-13l42-140c3-10-2-20-11-25-61-27-132-40-217-40-120 0-222 38-281 103-42 47-61 108-53 174 13 119 129 185 215 224 85 39 115 63 118 95 2 15-2 27-11 37-17 19-53 31-95 31-94 0-167-30-202-48-5-3-11-3-17-1s-10 7-12 12l-46 138c-3 9 1 19 9 24 45 28 138 58 265 59 127 0 230-37 290-104 43-48 62-112 54-183-11-95-77-166-207-225z"/><path d="m3896 1516c-21 0-36-1-51-3 3-30 17-170 19-196 13-1 32-3 57-3 75 0 117 27 123 81 3 28-5 54-23 75-26 30-71 46-125 46zm375-139c-9-79-52-142-123-182-76-45-176-55-247-55-89 0-175 8-229 20-8 2-15 9-16 18l-76 769c-1 6 1 11 5 16 4 4 9 7 15 7h182c10 0 19-8 20-18 0 0 22-227 26-262l58 3c117 0 218-28 283-78 75-56 111-143 101-238z"/></g>
</svg>
