<?xml version="1.0" encoding="UTF-8"?>
<svg width="142.77mm" height="296.35mm" version="1.1" viewBox="0 0 142.77188 296.35428" xmlns="http://www.w3.org/2000/svg" xmlns:cc="http://creativecommons.org/ns#" xmlns:dc="http://purl.org/dc/elements/1.1/" xmlns:rdf="http://www.w3.org/1999/02/22-rdf-syntax-ns#">
<g transform="translate(408.7 -61.14)" fill="#fff">
<path d="m-343.28 125.21c-11.364-2.1885-20.583-9.9949-24.855-21.047-1.8537-4.7958-2.272-13.638-0.89193-18.855 0.79611-3.0094 4.0265-9.4691 6.1005-12.199 3.5108-4.6212 8.1596-7.9062 14.741-10.416 5.6321-2.1483 16.235-2.0522 21.854 0.19792 7.0618 2.8277 13.448 8.1193 16.885 13.991 7.1921 12.286 5.1793 28.394-4.8583 38.878-4.0047 4.1828-9.5447 7.4139-15.294 8.9198-3.5401 0.92731-10.268 1.1882-13.682 0.53068zm22.304 232.05c-2.4116-0.3196-3.5151-0.66685-5.0744-1.5968-2.7177-1.6208-5.1072-4.0716-6.8063-6.9808l-1.4222-2.4351-0.23756-49.614-0.23756-49.614-0.96617-0.68798c-1.226-0.87297-2.2542-0.87167-3.4846 4e-3l-0.97233 0.69236-0.25709 49.314-0.25708 49.314-1.4503 2.6458c-1.8535 3.3814-4.6315 6.3018-7.4144 7.7944l-2.191 1.1751-5.2917 0.0132c-5.1432 0.0128-5.351-0.0158-7.4083-1.0179-2.9744-1.4488-5.988-4.6208-7.8493-8.2618l-1.4993-2.9329-0.0166-58.269c-0.0204-71.639-0.42248-116.79-1.0467-117.54-0.84658-1.0201-3.4612-0.51614-4.0987 0.78994-0.16835 0.34494-0.38546 14.835-0.48247 32.201l-0.17639 31.574-1.5477 2.9278c-2.8587 5.408-6.0996 7.7352-11.26 8.0856-3.4491 0.2342-7.4003-0.37683-9.5804-1.4815-2.6816-1.3589-5.105-4.68-6.33-8.675-0.44845-1.4624-0.49494-49.846-0.0639-66.474l0.26522-10.231 1.4381-3.2816c2.7119-6.1881 6.0975-10.671 11.103-14.701 3.6976-2.9772 10.081-6.1912 14.501-7.3016l3.2375-0.81318 38.806 0.0425c26.187 0.0286 39.926 0.17143 42.25 0.4391 14.749 1.6986 28.516 15.257 30.305 29.847 0.47233 3.8523 0.79032 61.51 0.37378 67.772-0.27273 4.1003-0.4782 5.2699-1.1687 6.6524-1.1033 2.2091-4.5676 5.9577-6.622 7.1654-1.5653 0.9202-1.8482 0.9627-6.4075 0.9627-4.6776 0-4.8154-0.0224-7.1208-1.1573-2.8952-1.4253-5.2254-3.9055-6.8581-7.2994l-1.1832-2.4595-0.0257-29.996c-0.0142-16.498-0.14777-30.855-0.29689-31.905-0.41326-2.9103-2.3912-4.0873-4.2879-2.5515-0.72834 0.58977-0.83379 1.0688-1.0678 4.8507-0.14278 2.308-0.37144 41.899-0.50813 87.981l-0.24853 83.785-1.2659 2.4694c-1.4753 2.878-4.7001 6.2507-7.3024 7.6372-2.357 1.2558-6.3615 1.6928-10.494 1.1452z" fill-opacity=".50196" stroke-width=".35278"/>
<path transform="matrix(.26458 0 0 .26458 -408.7 61.14)" d="m0.41782 625.07c0.22557 16.387 0.56579 29.574 0.95523 30.844 4.63 15.099 13.789 27.651 23.924 32.787 8.2396 4.1753 23.173 6.4848 36.209 5.5996 19.503-1.3243 31.752-10.121 42.557-30.561l5.8496-11.064 0.0879-27.597m21.344 4e-3c0.30038 63.925 0.48119 141.17 0.50586 227.82l0.0625 220.23 5.666 11.084c7.0348 13.761 18.426 25.751 29.668 31.226 7.7756 3.787 8.561 3.8937 28 3.8457l20-0.049 8.2812-4.4414c10.518-5.6412 21.016-16.679 28.021-29.459l5.4824-10 0.9707-186.38 0.97266-186.38 3.6738-2.6152c4.65-3.3096 8.5363-3.315 13.17-0.0156l3.6523 2.5996 0.89844 187.52 0.89648 187.52 5.375 9.2031c6.4218 10.996 15.453 20.259 25.725 26.385 5.8933 3.5147 10.065 4.8271 19.18 6.0351 15.619 2.0699 30.754 0.4183 39.662-4.3282 9.8354-5.2403 22.024-17.988 27.6-28.865l4.7852-9.332 0.93945-316.67c0.13888-46.817 0.29271-93.919 0.46876-134.93m22.895 0 0.0176 27.671 4.4727 9.2949c6.1708 12.827 14.977 22.203 25.92 27.59 8.7132 4.2895 9.2328 4.373 26.912 4.373 17.232 0 18.303-0.16075 24.219-3.6387 7.7645-4.5645 20.858-18.733 25.027-27.082 2.6096-5.2253 3.3852-9.6452 4.416-25.143 0.0901-1.3541 0.0488-10.514 0.12108-13.065" stroke-width="1.3333"/>
</g>
</svg>
