<?xml version="1.0" encoding="UTF-8"?>
<svg width="338.59mm" height="270.88mm" version="1.1" viewBox="0 0 338.5899 270.8808" xmlns="http://www.w3.org/2000/svg" xmlns:cc="http://creativecommons.org/ns#" xmlns:dc="http://purl.org/dc/elements/1.1/" xmlns:rdf="http://www.w3.org/1999/02/22-rdf-syntax-ns#">
<g transform="translate(36.987 6.9915)">
<path d="m-5.5562 263.62c-1.2048-0.10277-1.6206-0.20117-1.0583-0.25046 0.71439-0.0627 0.53297-0.13163-0.79375-0.30176-14.876-1.9076-26.917-13.899-28.801-28.684-0.17031-1.3362-0.2568-1.5942-0.3105-0.92604-0.36052 4.4853-0.4689-14.626-0.46739-82.418 1e-3 -67.388 0.11264-87.425 0.45859-82.682 0.045 0.61698 0.18952 0.13131 0.43302-1.4552 2.1692-14.134 13.404-25.504 27.451-27.782 1.9018-0.30845 5.1303-0.3938 14.928-0.39463l12.502-1e-3v112.32c0 74.701 0.0886 112.32 0.26459 112.32 0.14552 0 0.26458 0.11907 0.26458 0.26459 0 0.2926-21.44 0.2926-24.871 0zm36.248 0c0-0.14552 0.11906-0.26459 0.26459-0.26459 0.17597 0 0.26458-37.615 0.26458-112.32v-112.32h202.14v112.32c0 74.701 0.0886 112.32 0.26458 112.32 0.14553 0 0.26459 0.11907 0.26459 0.26459 0 0.17592-34.043 0.26458-101.6 0.26458-67.557 0-101.6-0.0887-101.6-0.26458zm214.58 0c0-0.14552 0.11906-0.26459 0.26458-0.26459 0.17598 0 0.26459-37.615 0.26459-112.32v-112.32l12.502 1e-3c9.7979 7.9e-4 13.026 0.0862 14.928 0.39464 10.329 1.6752 19.664 8.568 24.369 17.993 1.6556 3.3162 3.1658 8.6161 3.2691 11.472l0.0348 0.96295 0.17257-0.92604c0.46725-2.5072 0.54962 10.517 0.52525 83.054-0.0225 67.279-0.1374 86.235-0.49541 81.781-0.0537-0.6681-0.14018-0.41016-0.31049 0.92604-1.4653 11.496-9.3565 21.828-20.088 26.303-2.7969 1.1662-5.9052 2.0207-8.6169 2.3689-1.329 0.17066-1.5679 0.25323-0.89037 0.30769 0.50932 0.041-0.086 0.16324-1.3229 0.2718-3.5222 0.30909-24.606 0.29649-24.606-0.0148zm-163.18-239.12c0.12887-11.524 0.22139-12.193 2.3039-16.648 1.3149-2.8132 2.3348-4.2846 4.6188-6.6638 3.8295-3.989 8.3443-6.4102 13.643-7.3165 1.263-0.21603 1.6958-0.36416 1.1906-0.4075-3.3395-0.28648 7.4975-0.46281 28.443-0.46281s31.782 0.17633 28.443 0.46281c-0.50522 0.0433-0.0724 0.19147 1.1906 0.4075 5.2989 0.90633 9.8137 3.3275 13.643 7.3165 2.287 2.3822 3.3015 3.8471 4.6346 6.6919 2.0353 4.3431 2.1706 5.3324 2.2914 16.753l0.1071 10.12h-15.889l-0.0788-9.3266-0.0788-9.3266-0.73589-1.4985c-0.94298-1.9202-2.5811-3.5606-4.4235-4.4297l-1.4552-0.68641h-55.298l-1.4552 0.68641c-1.8557 0.87534-3.5976 2.6172-4.473 4.473l-0.68642 1.4552-0.0788 9.3266-0.0788 9.3266h-15.893z" fill="#fff" stroke-width=".26458"/>
</g>
</svg>
