<?xml version="1.0" encoding="UTF-8"?>
<svg width="425.7" height="355.86" version="1.1" viewBox="0 0 425.70117 355.86023" xmlns="http://www.w3.org/2000/svg">
<g transform="translate(-35.1 -63.551)" fill="#c51230" stroke-width="1.8061">
<path d="m84.6 63.551c-8.25 0-13.2 7.9084-16.5 15.816-13.2 37.563-26.4 75.126-31.35 116.64 0 35.586-1.6504 73.15-1.6504 110.71 0 21.747 21.45 55.356 39.6 55.355h381.15c1.65 1e-5 4.9512-3.9546 4.9512-5.9316v-71.172c-89.1-19.77-168.3-75.127-207.9-191.77-4.95-17.793-18.15-23.723-31.35-29.654zm-1.6504 23.725h133.65c8.25 0 16.501 39.541 21.451 59.311 3.3 5.931 1.6492 17.793-3.3008 17.793h-173.25c-3.3 0-4.9508-9.885-3.3008-17.793 8.25-19.77 16.5-59.311 24.75-59.311zm184.8 86.988c9.9 9.885 21.449 25.699 29.699 33.607v69.195l-26.398-15.814c-1.65-27.678-3.3008-57.333-3.3008-86.988zm44.551 49.424c11.55 11.862 16.5 13.84 24.75 21.748l1.6484 53.379-26.398-13.84zm-237.6 21.748c8.25 0 14.852 7.908 14.852 17.793 0 11.862-6.6016 19.77-14.852 19.77s-16.5-7.9075-16.5-19.77c0-9.885 8.25-17.793 16.5-17.793zm132 0c8.25 0 14.852 7.908 14.852 17.793 0 11.862-6.6016 19.77-14.852 19.77s-16.5-7.9075-16.5-19.77c0-9.885 8.25-17.793 16.5-17.793zm143.55 9.8848 24.75 11.861v43.494c-8.25-1.977-16.5-3.9542-24.75-7.9082zm34.65 17.793 19.799 5.9316v39.539c-6.6 0-13.199-1.9761-19.799-3.9531zm29.699 9.8848 16.5 3.9531v35.586c-4.95 0-11.55 4.4e-4 -16.5-1.9766zm24.75 5.9316 13.201 1.9766v35.586l-13.201-1.9766z" fill-rule="evenodd"/>
<path d="m35.1 391.73h33v-19.77h49.5v19.77h72.6v-19.77h270.6v19.77c-75.9 1.977-153.45 5.931-194.7 27.678h-231z"/>
</g>
</svg>
