<?xml version="1.0" encoding="UTF-8"?>
<svg version="1.1" viewBox="0 0 6444 2417" xmlns="http://www.w3.org/2000/svg">
  <g fill-rule="nonzero"><polygon points="702 1108 3052 1108 3166 -6 816 -6" fill="#c21136"/><path d="m5527 1395c0 21-7 40-21 55-24 27-68 43-119 43h-54c3-33 15-154 17-178 14-2 31-3 53-3 35 0 116 7 123 73 0 4 1 7 1 11zm175 403-18-78c-14-64-39-109-74-136 97-40 150-112 150-202 0-9-1-18-2-27-8-73-51-131-125-168-58-31-140-48-243-47-91 0-179 8-235 20-9 2-15 9-16 18l-76 769c-1 6 1 11 5 16 4 4 9 7 15 7h184c11 0 19-8 20-18 0 0 25-259 28-291h38c59 0 94 17 113 108 11 57 32 159 47 190 3 7 11 12 18 12h191c7 0 14-4 18-10 2-3 3-7 3-10 0-4-1-7-3-10-12-20-26-81-39-140z"/><path d="m961 2069h-125l-33 341h-53l34-341h-125l5-41h301z"/><path d="m1266 2377c91 0 149-104 138-197-6-55-33-119-126-119-96 0-149 108-139 196 7 62 44 120 126 120zm-2 40c-110 0-170-74-179-156-7-66 13-137 56-184 33-34 85-56 141-56 114 0 169 75 179 157 7 65-11 136-53 181-34 36-82 57-142 57h-1z"/><path d="m1670 2371c19 2 39 3 55 3 68 0 115-18 146-51 35-35 48-89 42-144-7-66-50-116-155-116-20 0-43 1-58 4l-30 303zm-19-338c32-5 67-8 104-8 72 0 128 18 163 50 26 21 47 56 52 103 8 68-15 140-65 182-45 37-105 53-187 53-37 0-76-2-103-5l37-375z"/><path d="m2321 2252-30-111c-4-20-11-48-15-70h-2c-9 23-17 47-27 70l-51 111h124zm-139 38-54 121h-55l176-383h62l102 383h-54l-31-121h-147z"/><path d="m2633 2410 16-159-107-224h56l55 124c15 34 20 49 25 64h1c9-16 21-38 38-66l78-122h61l-156 223-15 160z"/><path d="m1687 1597c15-39 55-141 55-141 10-26 21-57 31-87 1 3 16 84 16 84s21 98 31 144h-132zm436 347-189-784c-2-9-10-16-20-16h-239c-8 0-15 5-19 12l-262 609 5 23c10 44 25 111 33 126l32 55h72c8 0 16-5 19-13 0 0 65-168 74-191h220c6 28 38 187 38 187 2 9 10 16 20 16h195c6 0 12-3 16-8s5-11 4-17z"/><path d="m4573 1361c30-34 66-51 106-51 94 0 147 58 159 174 10 98-21 208-75 268-29 32-62 48-99 48h-1c-127 0-157-110-164-175-10-98 20-204 74-264zm485 114c-21-210-168-345-372-345-117 0-221 43-294 120-84 93-126 237-111 385 21 207 171 345 374 345h1c122 0 224-42 295-121 82-90 122-233 107-385z"/><path d="m746 1144h-710c-10 0-19 8-20 18l-16 147v2c0 5 2 10 5 13 4 4 9 7 15 7h274c-4 42-60 615-60 615v2c0 5 2 10 5 14 4 4 9 7 15 7h186c10 0 19-8 20-18 0 0 57-585 61-619h207l19-187z"/><path d="m6453 1160c-4-4-9-7-15-7h-700c-10 0-19 8-20 18l-1 13c49 41 78 94 88 156h166c-4 42-60 615-60 615v2c0 5 2 10 5 14 4 4 9 7 15 7h186c10 0 19-8 20-18 0 0 57-585 61-619h227c10 0 19-8 20-18l15-147v-4c0-4-2-9-5-12z"/><path d="m1158 1451c-24 27-68 43-119 43h-54c3-33 15-154 17-178 14-2 31-3 53-3 35 0 116 7 123 73 3 25-4 48-21 66zm196 348-18-78c-14-64-39-109-74-136 97-40 150-112 150-202 0-9-1-18-2-27-8-73-52-131-125-168-58-31-140-48-243-47-91 0-179 8-235 20-9 2-15 9-16 18l-76 769c-1 6 1 11 5 16 4 4 9 7 15 7h184c10 0 19-8 20-18 0 0 25-258 28-291h38c59 0 94 17 113 108 11 57 32 159 47 190 3 7 11 11 18 11h191c7 0 14-4 18-10 2-3 3-7 3-10 0-4-1-7-3-10-12-20-26-81-39-140z"/><path d="m2958 1151c-4-4-9-7-15-7h-174c-10 0-19 8-20 18l-27 285c-6 69-9 125-10 176-22-55-45-110-72-169 0-1-149-300-149-300-3-7-11-11-18-11h-218c-10 0-19 8-20 18l-77 784c-1 6 1 11 5 16 4 4 9 7 15 7h173c10 0 19-8 20-18l27-275c8-88 14-162 17-221 24 60 50 117 84 189l157 313c3 7 11 11 18 11h193c10 0 19-8 20-18l77-784c1-6-1-11-5-16z"/><path d="m3351 1471c-77-37-123-61-127-95-1-11 2-21 10-30 16-18 50-29 92-29 81-1 145 26 157 32 5 3 12 3 17 0 5-2 9-7 11-13l42-140c3-10-2-20-11-25-61-27-132-40-217-40-120 0-222 38-281 103-42 47-61 108-53 174 13 119 129 185 215 224 85 39 115 63 118 95 2 15-2 27-11 37-17 19-53 31-95 31-94 0-167-30-202-48-5-3-11-3-17-1s-10 7-12 12l-46 138c-3 9 1 19 9 24 45 28 138 58 265 59 127 0 230-37 290-104 43-48 62-112 54-183-11-95-77-166-207-225z"/><path d="m3896 1516c-21 0-36-1-51-3 3-30 17-170 19-196 13-1 32-3 57-3 75 0 117 27 123 81 3 28-5 54-23 75-26 30-71 46-125 46zm375-139c-9-79-52-142-123-182-76-45-176-55-247-55-89 0-175 8-229 20-8 2-15 9-16 18l-76 769c-1 6 1 11 5 16 4 4 9 7 15 7h182c10 0 19-8 20-18 0 0 22-227 26-262l58 3c117 0 218-28 283-78 75-56 111-143 101-238z"/><path d="m876.99 564c-5 0-8.9908 3.9938-9.9908 8.9938l-48.998 490c0 3.0001 0.99118 5.9968 2.9912 7.9968 1 2 3.9997 3.0115 6.9997 3.0115h325v0.997c4.9999 0 9.0111-3.9938 10.011-8.9938l5.6973-58.215c-11.248-13.912-21.024-28.888-29.098-44.786h-175.6l39.007-388.01c0-3-1.0115-5.9967-3.0115-7.9967-1-2-3.9997-2.9911-6.9997-2.9911z" fill="#ffffff"/><path d="m1416 556.01c-81 0-151 27.985-199 73.985-51 51-78.014 124.01-78.014 202.01 0 12 1.0147 24.992 2.0144 36.992l0.9971-0.99701c13 118 106.99 213 251.99 213v0.997h0.997c84 0 153.02-27.005 200.02-74.005 49-49 74.982-123 74.982-200 0-13-0.9939-25.987-1.9942-38.987-13-121-103.99-214-251.99-213zm-5.0056 107.99c80 0 104.99 51.998 112.99 111 1.0001 7 0.997 15.013 0.997 23.013 0 42-12.001 86.989-34.001 120.99-22 34-51.996 55.997-90.996 55.997v10.011h-0.997v-8.9938h-0.997c-73-1-108-46.015-116-112.02-1.0001-7-0.997-14.993-0.997-22.993 0-42 12.998-87.009 34.998-121.01 23-34 54.004-55.997 95.004-55.997z" fill="#ffffff"/><path d="m2021 556.01c-78 0-144 16.986-199 52.986-71 45-115.98 122-115.98 219 0 12 0.9939 23.993 1.9942 36.993 15 135 124.99 217.01 271.99 217.01h1.0179c15.117 0 29.178-0.573 42.405-1.526l49.486-114.99c-20.932 4.658-45.903 7.5084-71.91 7.5084-91-1-139.99-48.006-148.99-122.01-1.0001-8-0.997-15.99-0.997-23.99 0-55 21-97.994 55-125.99 28-23 68.989-36.016 113.99-36.016s82.001 9.0168 96.002 15.017c1.9999 1 4.9967 1 7.9967 0 2.0001-1 4.0056-3.0026 5.0056-6.0026l22.993-85.014c2.0001-5-0.9855-9.9849-4.9852-11.985-19-9-66.015-20.999-126.01-20.999z" fill="#ffffff"/><path d="m2286 564c-3.9999 0-7.0141 2.0026-9.014 6.0026l-210.99 490c-1.0002 3-1.0033 5.9939 0.997 8.9939 1.0001 2.9999 4.9967 5.0055 7.9967 5.0055h124c4 0 6.9938-2.0026 8.9938-6.0027l47.004-121.01h141.01l23.99 119.01c1.0001 5 5.0112 7.9967 10.011 7.9967v0.997h121.99c3 0 6.0171-2.0086 8.0171-4.0086 2-3 2.9941-5.9938 1.9941-8.9938l-117-490c-1.0002-5-5.0112-7.9967-10.011-7.9967zm62 126.99c4 22 7.9849 44.997 11.985 62.997l20.002 93.01h-89.999l36.016-91.993c6.9999-19 14.996-42.015 21.996-64.015z" fill="#ffffff"/><path d="m2673 564c-5 0-9.0112 3.9938-10.011 8.9938l-48.998 490c0 3.0001 1.0116 5.9968 3.0114 7.9968 1.0002 2 3.9996 3.0115 6.9996 3.0115v0.997h325c5 0 8.9908-3.9938 9.9908-8.9938l9.0141-92.013c1e-4 -3-1.0116-5.9967-3.0115-7.9967-1.0001-2-3.9996-2.9911-6.9996-2.9911h-197.99l38.987-388.01c0-3-0.9908-5.9967-2.9912-7.9967-1.0001-2-3.9997-2.9911-6.9997-2.9911z" fill="#ffffff"/></g>
</svg>
