<?xml version="1.0" encoding="UTF-8" standalone="no"?>
<!-- Created with Inkscape (http://www.inkscape.org/) -->

<svg
   xmlns:dc="http://purl.org/dc/elements/1.1/"
   xmlns:cc="http://creativecommons.org/ns#"
   xmlns:rdf="http://www.w3.org/1999/02/22-rdf-syntax-ns#"
   xmlns:svg="http://www.w3.org/2000/svg"
   xmlns="http://www.w3.org/2000/svg"
   xmlns:sodipodi="http://sodipodi.sourceforge.net/DTD/sodipodi-0.dtd"
   xmlns:inkscape="http://www.inkscape.org/namespaces/inkscape"
   width="271.1098mm"
   height="271.10953mm"
   viewBox="0 0 271.1098 271.10953"
   version="1.1"
   id="svg8"
   inkscape:version="0.92.1 r15371"
   sodipodi:docname="ltt_logo.svg">
  <defs
     id="defs2" />
  <sodipodi:namedview
     id="base"
     pagecolor="#ffffff"
     bordercolor="#666666"
     borderopacity="1.0"
     inkscape:pageopacity="0.0"
     inkscape:pageshadow="2"
     inkscape:zoom="0.35"
     inkscape:cx="768.57144"
     inkscape:cy="491.99998"
     inkscape:document-units="mm"
     inkscape:current-layer="layer1"
     showgrid="false"
     inkscape:window-width="1920"
     inkscape:window-height="986"
     inkscape:window-x="-11"
     inkscape:window-y="-11"
     inkscape:window-maximized="1" />
  <metadata
     id="metadata5">
    <rdf:RDF>
      <cc:Work
         rdf:about="">
        <dc:format>image/svg+xml</dc:format>
        <dc:type
           rdf:resource="http://purl.org/dc/dcmitype/StillImage" />
        <dc:title></dc:title>
      </cc:Work>
    </rdf:RDF>
  </metadata>
  <g
     inkscape:label="Layer 1"
     inkscape:groupmode="layer"
     id="layer1"
     transform="translate(385.28372,-310.27976)">
    <g
       id="g4537">
      <path
         id="path4530"
         d="m -385.28372,571.86428 v -9.525 h 135.46666 135.46666 v 9.525 9.525 h -135.46666 -135.46666 z"
         style="fill:#82b03d;stroke-width:0.99999994"
         inkscape:connector-curvature="0" />
      <path
         id="path4528"
         transform="scale(0.26458333)"
         d="m -1455.5234,1172.7109 -0.3418,460 c -0.1877,253 -0.055,460.7504 0.2929,461.668 0.5058,1.3324 103.672,1.6016 512.33988,1.334 l 511.70898,-0.3359 v -461.334 -461.3321 h -512 z m 110.7968,192.8926 c 7.1567,-0.01 15.9306,0.025 26.625,0.094 l 54.5782,0.3476 0.3359,231.666 0.3379,231.668 71.6621,0.018 c 39.4146,0.011 72.4207,0.5007 73.3457,1.0879 1.3182,0.8368 1.6072,12.8686 1.334,55.6465 l -0.3496,54.58 -127.3926,0.3399 c -97.979,0.2615 -127.7643,-0.03 -129,-1.2656 -1.2434,-1.2434 -1.6011,-65.9805 -1.5859,-286.3399 0.011,-156.6033 0.5007,-285.491 1.0879,-286.416 0.6276,-0.9886 7.5514,-1.3982 29.0214,-1.4258 z m 726.42582,33.1445 c 5.17131,0.068 6.97253,0.5087 7.56445,1.4434 0.64517,1.0188 1.18202,26.9029 1.19336,57.5195 l 0.0195,55.6661 h 51.16992 c 41.26262,0 51.45876,0.3473 52.66016,1.7949 1.0724,1.2923 1.11517,4.7475 0.1543,12.334 -2.13426,16.8511 -6.27319,27.0681 -14.39649,35.5371 l -4.79687,5 h -42.41797 -42.41797 l 0.35547,151 0.35547,151 3.16211,6.4218 c 10.85926,22.056 45.72002,17.9807 77.76172,-9.0898 5.64124,-4.766 10.81881,-8.6641 11.50586,-8.6641 1.93666,0 10.90429,11.5084 10.90429,13.9942 0,3.0933 -15.65577,20.186 -27.82226,30.375 -24.45298,20.4784 -45.97638,31.2475 -72.51172,36.2812 -11.50583,2.1822 -37.67805,2.458 -50.99805,0.5371 -35.1165,-5.0641 -57.40001,-22.1649 -67.26953,-51.6211 -6.53431,-19.502 -6.7151,-24.2404 -6.72266,-177.2089 l -0.008,-142.9766 -31.66601,-0.3574 -31.66797,-0.3574 -0.43555,-9.334 c -0.61134,-13.101 1.6701,-22.4509 6.45898,-26.4805 2.11854,-1.7826 10.49578,-5.382 18.61719,-8 51.38147,-16.5632 78.20799,-43.9085 97.4668,-99.3496 7.63343,-21.9746 11.25538,-24.2364 40.36719,-25.2109 5.99673,-0.2008 10.31127,-0.2947 13.41406,-0.254 z m -297.22266,0.629 0.66602,56.666 0.66797,56.6679 51.99804,0.7051 c 28.60003,0.3883 52.15068,0.8383 52.33399,1 0.18331,0.1617 0.32592,4.0436 0.31836,8.627 -0.0277,14.584 -5.53184,30.1355 -13.97266,39.4785 l -4.95508,5.4863 -42.86132,0.3516 -42.86329,0.3515 v 148 c 0,139.4316 0.14044,148.4002 2.41602,154.9239 3.15099,9.0331 6.80155,13.5134 13.48047,16.5468 16.31486,7.4099 45.92567,-2.1702 66.66015,-21.5664 4.64811,-4.348 9.34376,-7.9043 10.43555,-7.9043 2.33624,0 11.67578,11.5357 11.67578,14.4219 0,3.261 -28.98934,31.6317 -41.26562,40.3848 -19.34238,13.7912 -37.56546,21.7647 -59.06836,25.8437 -9.72616,1.845 -38.75177,2.531 -47.66602,1.127 -21.03182,-3.3125 -39.70823,-10.6341 -50.23826,-19.6953 -6.9961,-6.0202 -15.3947,-18.4949 -19.0781,-28.3399 -7.4258,-19.8471 -7.1153,-13.0497 -7.9297,-174.4101 l -0.7539,-149.3321 -31.334,-0.6679 -31.3321,-0.666 -0.4277,-8 c -1.2644,-23.6655 2.0142,-28.3611 25.0938,-35.9375 51.976,-17.0625 76.26608,-41.7488 97.25387,-98.8418 8.47079,-23.0432 11.7517,-25.037 41.41211,-25.1485 z"
         style="fill:#bb2a2f;fill-opacity:1;stroke-width:3.77952743"
         inkscape:connector-curvature="0" />
    </g>
  </g>
</svg>
